<svg width="87" height="42" viewBox="0 0 87 42" fill="none" xmlns="http://www.w3.org/2000/svg">
<g filter="url(#filter0_d_27_1975)">
<path d="M4 17C4 7.61116 11.6112 0 21 0H66C75.3888 0 83 7.61116 83 17C83 26.3888 75.3888 34 66 34H21C11.6112 34 4 26.3888 4 17Z" fill="white"/>
<path fill-rule="evenodd" clip-rule="evenodd" d="M15.8787 9.8788C16.4413 9.31619 17.2044 9.00012 18 9.00012H19C19.5523 9.00012 20 9.44784 20 10.0001C20 10.5524 19.5523 11.0001 19 11.0001H18C17.7348 11.0001 17.4804 11.1055 17.2929 11.293C17.1054 11.4806 17 11.7349 17 12.0001V21.0001C17 21.2653 17.1054 21.5197 17.2929 21.7072C17.4804 21.8948 17.7348 22.0001 18 22.0001H27C27.2652 22.0001 27.5196 21.8948 27.7071 21.7072C27.8946 21.5197 28 21.2653 28 21.0001V20.0001C28 19.4478 28.4477 19.0001 29 19.0001C29.5523 19.0001 30 19.4478 30 20.0001V21.0001C30 21.7958 29.6839 22.5588 29.1213 23.1214C28.5587 23.6841 27.7957 24.0001 27 24.0001H18C17.2043 24.0001 16.4413 23.6841 15.8787 23.1214C15.3161 22.5588 15 21.7958 15 21.0001V12.0001C15 11.2045 15.3161 10.4414 15.8787 9.8788Z" fill="black"/>
<path fill-rule="evenodd" clip-rule="evenodd" d="M28.7087 5.90722C29.29 5.32633 30.0782 5 30.9 5C31.7222 5 32.5107 5.32662 33.0921 5.908C33.6735 6.48938 34.0001 7.27791 34.0001 8.10011C34.0001 8.92192 33.6738 9.7101 33.0929 10.2914C33.0926 10.2917 33.0924 10.2919 33.0921 10.2922L31.8287 11.5602C31.7936 11.612 31.753 11.6613 31.7071 11.7072C31.6621 11.7523 31.6138 11.7921 31.563 11.8268L24.7084 18.7059C24.5207 18.8943 24.2658 19.0001 24 19.0001H21C20.4477 19.0001 20 18.5524 20 18.0001V15.0001C20 14.7343 20.1058 14.4794 20.2942 14.2917L27.1733 7.43708C27.208 7.38632 27.2478 7.33805 27.2929 7.293C27.3388 7.24708 27.3881 7.20655 27.4399 7.17143L28.7079 5.908C28.7082 5.90774 28.7084 5.90748 28.7087 5.90722ZM28.0112 9.42556L22 15.4154V17.0001H23.5847L29.5745 10.9889L28.0112 9.42556ZM30.9862 9.57213L29.428 8.01387L30.1221 7.32221C30.3284 7.1159 30.6082 7 30.9 7C31.1918 7 31.4716 7.1159 31.6779 7.32221C31.8842 7.52852 32.0001 7.80834 32.0001 8.10011C32.0001 8.39187 31.8842 8.67169 31.6779 8.878L30.9862 9.57213Z" fill="black"/>
<path d="M38.3081 21V12.6H43.7921V13.836H39.8441V16.14H43.4321V17.34H39.8441V19.764H43.7921V21H38.3081Z" fill="black"/>
<path d="M47.9456 21.144C47.3856 21.144 46.8856 21.008 46.4456 20.736C46.0056 20.464 45.6576 20.092 45.4016 19.62C45.1456 19.148 45.0176 18.612 45.0176 18.012C45.0176 17.412 45.1456 16.88 45.4016 16.416C45.6576 15.944 46.0056 15.576 46.4456 15.312C46.8856 15.04 47.3856 14.904 47.9456 14.904C48.3936 14.904 48.7856 14.988 49.1216 15.156C49.4576 15.324 49.7296 15.56 49.9376 15.864V12.36H51.4736V21H50.1056L49.9376 20.148C49.7456 20.412 49.4896 20.644 49.1696 20.844C48.8576 21.044 48.4496 21.144 47.9456 21.144ZM48.2696 19.8C48.7656 19.8 49.1696 19.636 49.4816 19.308C49.8016 18.972 49.9616 18.544 49.9616 18.024C49.9616 17.504 49.8016 17.08 49.4816 16.752C49.1696 16.416 48.7656 16.248 48.2696 16.248C47.7816 16.248 47.3776 16.412 47.0576 16.74C46.7376 17.068 46.5776 17.492 46.5776 18.012C46.5776 18.532 46.7376 18.96 47.0576 19.296C47.3776 19.632 47.7816 19.8 48.2696 19.8Z" fill="black"/>
<path d="M53.8657 14.124C53.5857 14.124 53.3537 14.04 53.1697 13.872C52.9937 13.704 52.9057 13.492 52.9057 13.236C52.9057 12.98 52.9937 12.772 53.1697 12.612C53.3537 12.444 53.5857 12.36 53.8657 12.36C54.1457 12.36 54.3737 12.444 54.5497 12.612C54.7337 12.772 54.8257 12.98 54.8257 13.236C54.8257 13.492 54.7337 13.704 54.5497 13.872C54.3737 14.04 54.1457 14.124 53.8657 14.124ZM53.0977 21V15.048H54.6337V21H53.0977Z" fill="black"/>
<path d="M58.8889 21C58.2649 21 57.7649 20.848 57.3889 20.544C57.0129 20.24 56.8249 19.7 56.8249 18.924V16.332H55.8049V15.048H56.8249L57.0049 13.452H58.3609V15.048H59.969V16.332H58.3609V18.936C58.3609 19.224 58.4209 19.424 58.5409 19.536C58.6689 19.64 58.8849 19.692 59.1889 19.692H59.9329V21H58.8889Z" fill="black"/>
</g>
<defs>
<filter id="filter0_d_27_1975" x="0" y="0" width="87" height="42" filterUnits="userSpaceOnUse" color-interpolation-filters="sRGB">
<feFlood flood-opacity="0" result="BackgroundImageFix"/>
<feColorMatrix in="SourceAlpha" type="matrix" values="0 0 0 0 0 0 0 0 0 0 0 0 0 0 0 0 0 0 127 0" result="hardAlpha"/>
<feOffset dy="4"/>
<feGaussianBlur stdDeviation="2"/>
<feComposite in2="hardAlpha" operator="out"/>
<feColorMatrix type="matrix" values="0 0 0 0 0 0 0 0 0 0 0 0 0 0 0 0 0 0 0.25 0"/>
<feBlend mode="normal" in2="BackgroundImageFix" result="effect1_dropShadow_27_1975"/>
<feBlend mode="normal" in="SourceGraphic" in2="effect1_dropShadow_27_1975" result="shape"/>
</filter>
</defs>
</svg>
